<?xml version="1.0" encoding="utf-8"?>
<!-- Generator: Adobe Illustrator 22.1.0, SVG Export Plug-In . SVG Version: 6.00 Build 0)  -->
<svg version="1.1" xmlns="http://www.w3.org/2000/svg" xmlns:xlink="http://www.w3.org/1999/xlink" x="0px" y="0px"
	 viewBox="0 0 585 148" style="enable-background:new 0 0 585 148;" xml:space="preserve">
<style type="text/css">
	.st0{display:none;}
	.st1{display:inline;fill:#99BDE4;}
	.st3{fill:none;stroke:#23374B;stroke-miterlimit:10;stroke-dasharray:4;}
</style>
<g id="Layer_2" class="st0">
	<rect x="-260.6" y="-29.1" class="st1" width="867.4" height="216.3"/>
</g>
<g id="Layer_1">
</g>
<g id="pocket">
</g>
<g id="P">
</g>
<g id="CKETS">
	<g>
		<path class="st3" d="M11.6,50c0-12.5,2.6-45.9,47.4-45.9c40.2,0,46.4,27,47.2,41.5c0.2,2.6-1.5,4.7-4.2,5.3l-21,4.7
			c-4,0.8-7-1.9-7.6-5.9c-0.9-8.3-4.3-13.2-14.5-13.2c-14,0-14.9,8.9-14.9,23.4v27.2c0,14.5,0.9,23.4,14.9,23.4
			c10.4,0,13.2-4.9,14.3-13.6c0.6-4,3.6-6.4,7.4-5.5l21.3,4.7c2.6,0.6,4.3,2.6,4.2,5.5c-0.8,14.3-7,41.3-47.2,41.3
			c-44.7,0-47.4-33.4-47.4-45.9V50z"/>
		<path class="st3" d="M234.7,132.9c2.6,3.8,0.9,6.8-3.6,6.8h-28.3c-3,0-5.1-1.1-6.8-3.8l-23.4-35.9c-0.8-1.1-1.9-1.1-2.6,0
			l-7.7,10.6c-0.6,0.8-0.8,1.5-0.8,2.5v21c0,3.6-1.9,5.7-5.7,5.7h-21.5c-3.6,0-5.7-2.1-5.7-5.7V13.2c0-3.8,2.1-5.7,5.7-5.7h21.5
			c3.8,0,5.7,1.9,5.7,5.7v37.9c0,1.9,1.3,2.3,2.3,0.8l29.6-40.8c1.7-2.5,3.8-3.6,6.8-3.6h27.9c4.7,0,6.2,3,3.6,7L193.6,67
			c-0.6,0.9-0.8,1.7,0,2.6L234.7,132.9z"/>
		<path class="st3" d="M340.7,7.6c3.8,0,5.7,1.9,5.7,5.7v21.1c0,3.6-1.9,5.7-5.7,5.7H295c-3.6,0-5.7,1.9-5.7,5.7v6
			c0,3.6,2.1,5.7,5.7,5.7h29.3c3.8,0,5.7,1.9,5.7,5.7v21.1c0,3.6-1.9,5.7-5.7,5.7H295c-3.6,0-5.7,1.9-5.7,5.7v6
			c0,3.6,2.1,5.7,5.7,5.7h45.7c3.8,0,5.7,1.9,5.7,5.7v21.1c0,3.8-1.9,5.7-5.7,5.7h-79.3c-3.6,0-5.7-2.1-5.7-5.7V13.2
			c0-3.8,2.1-5.7,5.7-5.7H340.7z"/>
		<path class="st3" d="M402.4,45.7c0-3.8-1.9-5.7-5.7-5.7h-26.4c-3.6,0-5.7-2.1-5.7-5.7V13.2c0-3.8,2.1-5.7,5.7-5.7H467
			c3.8,0,5.7,1.9,5.7,5.7v21.1c0,3.6-1.9,5.7-5.7,5.7h-26.4c-3.6,0-5.7,1.9-5.7,5.7v88.4c0,3.6-1.9,5.7-5.7,5.7H408
			c-3.6,0-5.7-2.1-5.7-5.7V45.7z"/>
		<path class="st3" d="M553.6,54.4c-3.8,0.8-5.7-0.9-6.2-4.7C546.1,41.9,539.8,37,531,37c-7.4,0-11.9,4.3-11.1,8.7
			c2.6,14.7,62.3,14.3,62.3,57.8c0,5.7-6.4,39.1-51.2,39.1c-39.6,0-48.1-26.1-49.1-40.8c-0.2-3.4,1.5-5.5,4.9-6.2l21.3-4.7
			c3.8-0.8,5.9,0.9,6.2,4.9c0.8,9.1,7.7,14.3,16.6,14.3c9.3,0,16-5.5,14.9-10.6c-3.6-16-60.4-12.5-60.4-55.9
			C485.3,38,488.7,4.5,531,4.5c38.9,0,48,25.3,49.1,38.9c0.2,3.4-1.5,5.5-4.9,6.2L553.6,54.4z"/>
	</g>
</g>
</svg>
