<?xml version="1.0" encoding="utf-8"?>
<!-- Generator: Adobe Illustrator 22.1.0, SVG Export Plug-In . SVG Version: 6.00 Build 0)  -->
<svg version="1.1" id="Layer_1" xmlns="http://www.w3.org/2000/svg" xmlns:xlink="http://www.w3.org/1999/xlink" x="0px" y="0px"
	 viewBox="0 0 601.4 122.3" style="enable-background:new 0 0 601.4 122.3;" xml:space="preserve">
<style type="text/css">
	.st0{fill:none;stroke:#23374b;stroke-miterlimit:10;stroke-dasharray:2;}
</style>
<g>
	<path class="st0" d="M45.8,13.7c24.2,0,34,10.3,34,32.6c0,22.3-9.8,32.6-34,32.6h-6.5c-2.6,0-4.1,1.4-4.1,4.1v21.7
		c0,2.7-1.4,4.1-4.1,4.1H16c-2.6,0-4.1-1.5-4.1-4.1V17.9c0-2.7,1.4-4.1,4.1-4.2H45.8z M46.6,55.5c6.5,0,9.8-0.8,9.8-9.2
		s-3.3-9.2-9.8-9.2h-7.3c-2.6,0-4.1,1.4-4.1,4.1v10.3c0,2.6,1.5,4.1,4.1,4.1H46.6z"/>
	<path class="st0" d="M161.8,78.2c0,9-1.9,33-34.1,33c-32.2,0-34.1-24-34.1-33v-34c0-9,1.9-33,34.1-33c32.2,0,34.1,24,34.1,33V78.2z
		 M138.4,51.5c0-10.5-0.7-16.8-10.7-16.8c-10,0-10.7,6.4-10.7,16.8V71c0,10.5,0.7,16.8,10.7,16.8c10,0,10.7-6.4,10.7-16.8V51.5z"/>
	<path class="st0" d="M179.5,44.3c0-9,1.9-33,34.1-33c28.9,0,33.4,19.4,34,29.9c0.1,1.9-1.1,3.4-3,3.8l-15.1,3.4
		c-2.9,0.5-5-1.4-5.4-4.2c-0.7-6-3.1-9.5-10.5-9.5c-10,0-10.7,6.4-10.7,16.8V71c0,10.5,0.7,16.8,10.7,16.8c7.5,0,9.5-3.5,10.3-9.8
		c0.4-2.9,2.6-4.6,5.3-3.9l15.3,3.4c1.9,0.4,3.1,1.9,3,3.9c-0.5,10.3-5,29.7-34,29.7c-32.2,0-34.1-24-34.1-33V44.3z"/>
	<path class="st0" d="M340,103.9c1.9,2.7,0.7,4.9-2.6,4.9H317c-2.2,0-3.7-0.8-4.9-2.7l-16.8-25.8c-0.5-0.8-1.4-0.8-1.9,0l-5.6,7.6
		c-0.4,0.5-0.5,1.1-0.5,1.8v15.1c0,2.6-1.4,4.1-4.1,4.1h-15.5c-2.6,0-4.1-1.5-4.1-4.1V17.8c0-2.7,1.5-4.1,4.1-4.1h15.5
		c2.7,0,4.1,1.4,4.1,4.1v27.3c0,1.4,1,1.6,1.6,0.5l21.3-29.3c1.2-1.8,2.7-2.6,4.9-2.6h20.1c3.4,0,4.5,2.2,2.6,5l-27.4,37.8
		c-0.4,0.7-0.5,1.2,0,1.9L340,103.9z"/>
	<path class="st0" d="M416.2,13.7c2.7,0,4.1,1.4,4.1,4.1V33c0,2.6-1.4,4.1-4.1,4.1h-32.9c-2.6,0-4.1,1.4-4.1,4.1v4.3
		c0,2.6,1.5,4.1,4.1,4.1h21c2.7,0,4.1,1.4,4.1,4.1v15.2c0,2.6-1.4,4.1-4.1,4.1h-21c-2.6,0-4.1,1.4-4.1,4.1v4.3
		c0,2.6,1.5,4.1,4.1,4.1h32.9c2.7,0,4.1,1.4,4.1,4.1v15.2c0,2.7-1.4,4.1-4.1,4.1h-57c-2.6,0-4.1-1.5-4.1-4.1V17.8
		c0-2.7,1.5-4.1,4.1-4.1H416.2z"/>
	<path class="st0" d="M460.6,41.1c0-2.7-1.4-4.1-4.1-4.1h-19c-2.6,0-4.1-1.5-4.1-4.1V17.8c0-2.7,1.5-4.1,4.1-4.1H507
		c2.7,0,4.1,1.4,4.1,4.1V33c0,2.6-1.4,4.1-4.1,4.1h-19c-2.6,0-4.1,1.4-4.1,4.1v63.6c0,2.6-1.4,4.1-4.1,4.1h-15.2
		c-2.6,0-4.1-1.5-4.1-4.1V41.1z"/>
	<path class="st0" d="M569.3,47.4c-2.7,0.5-4.1-0.7-4.5-3.4c-1-5.6-5.4-9.1-11.8-9.1c-5.3,0-8.6,3.1-8,6.2
		c1.9,10.6,44.8,10.3,44.8,41.6c0,4.1-4.6,28.1-36.8,28.1c-28.5,0-34.6-18.7-35.3-29.3c-0.1-2.4,1.1-3.9,3.5-4.5l15.3-3.4
		c2.7-0.5,4.2,0.7,4.5,3.5c0.5,6.5,5.6,10.3,12,10.3c6.7,0,11.5-3.9,10.7-7.6c-2.6-11.5-43.5-9-43.5-40.2
		c-0.1-4.1,2.3-28.1,32.7-28.1c28,0,34.5,18.2,35.3,28c0.1,2.4-1.1,3.9-3.5,4.5L569.3,47.4z"/>
</g>
</svg>
