<svg xmlns="http://www.w3.org/2000/svg" viewBox="0 0 107.83 148"><defs><style>.cls-1{fill:none;stroke:#23374b;stroke-miterlimit:10;stroke-dasharray:4;stroke-width: 2px;fill: #A9CAE9}</style></defs><title>pocketP</title><g id="P"><path class="cls-1" d="M52.15,7.57c33.6,0,47.2,14.35,47.2,45.31s-13.6,45.31-47.2,45.31H43.08c-3.58,0-5.66,1.89-5.66,5.66v30.21q0,5.67-5.66,5.67H10.61C7,139.73,5,137.65,5,134.06V13.42c0-3.78,1.88-5.66,5.66-5.85Zm1.13,58.15c9.06,0,13.59-1.14,13.59-12.84S62.34,40,53.28,40H43.08c-3.58,0-5.66,1.89-5.66,5.67V60.05c0,3.59,2.08,5.67,5.66,5.67Z"/></g></svg>
